<?xml version="1.0" encoding="UTF-8"?>
<!DOCTYPE svg PUBLIC "-//W3C//DTD SVG 1.1//EN" "http://www.w3.org/Graphics/SVG/1.1/DTD/svg11.dtd">
<!-- Creator: CorelDRAW 2020 (64-Bit) -->
<svg xmlns="http://www.w3.org/2000/svg" xml:space="preserve" width="119.044mm" height="54.7138mm" version="1.1" style="shape-rendering:geometricPrecision; text-rendering:geometricPrecision; image-rendering:optimizeQuality; fill-rule:evenodd; clip-rule:evenodd"
viewBox="0 0 10704.67 4919.95"
 xmlns:xlink="http://www.w3.org/1999/xlink"
 xmlns:xodm="http://www.corel.com/coreldraw/odm/2003">
 <defs>
  <style type="text/css">
   <![CDATA[
    .fil0 {fill:#525252;fill-rule:nonzero}
   ]]>
  </style>
 </defs>
 <g id="Слой_x0020_1">
  <metadata id="CorelCorpID_0Corel-Layer"/>
  <g id="_1849969258992">
   <path class="fil0" d="M3964.09 3280.9c-109.24,0 -207.97,-18.55 -296.19,-55.66 -88.23,-37.11 -158.6,-94.53 -211.12,-172.24 -52.51,-77.73 -78.77,-174.7 -78.77,-290.94 0,-180.67 48.32,-317.9 144.94,-411.73 96.63,-93.82 233.87,-140.74 411.72,-140.74 176.44,0 309.84,45.51 400.18,136.53 90.33,91.03 135.48,222.67 135.48,394.93 0,49.01 -22.4,73.52 -67.22,73.52l-770.94 0c0,92.43 32.21,163.5 96.63,213.21 64.42,49.72 154.04,74.58 268.87,74.58 110.63,0 210.07,-25.2 298.3,-75.62 9.8,-5.6 17.51,-8.41 23.11,-8.41 9.8,0 17.49,6.3 23.09,18.9l50.43 90.34c4.2,8.41 6.3,16.11 6.3,23.09 0,9.81 -6.3,18.91 -18.91,27.3 -57.41,35.01 -119.39,60.92 -185.91,77.73 -66.52,16.81 -143.19,25.2 -230.02,25.2l0.02 0.02zm262.58 -621.78c0,-86.83 -24.16,-154.75 -72.48,-203.76 -48.32,-49.02 -120.78,-73.53 -217.41,-73.53 -98.03,0 -173.31,25.21 -225.83,75.62 -52.51,50.43 -78.79,117.64 -78.79,201.67l594.49 0 0.02 0z"/>
   <path id="_1" class="fil0" d="M5136.25 3249.39c-19.59,0 -34.31,-3.85 -44.12,-11.55 -9.81,-7.7 -19.61,-21.36 -29.4,-40.96l-422.23 -896.98c-4.21,-8.41 -6.3,-16.81 -6.3,-25.21 0,-9.8 3.15,-17.85 9.45,-24.15 6.3,-6.3 15.05,-9.45 26.26,-9.45l174.36 0c18.2,0 31.51,3.15 39.91,9.45 8.41,6.3 16.11,17.85 23.11,34.65l281.49 655.4 281.48 -655.4c7,-15.4 15.05,-26.61 24.16,-33.6 9.1,-7 22.75,-10.51 40.96,-10.51l174.36 0c11.2,0 19.95,3.15 26.26,9.45 6.3,6.3 9.45,14.35 9.45,24.15 0,8.41 -2.1,16.81 -6.3,25.21l-422.23 896.98c-9.8,19.59 -19.61,33.27 -29.4,40.96 -9.8,7.71 -24.5,11.55 -44.12,11.55l-107.13 0 -0.01 0.02z"/>
   <path id="_2" class="fil0" d="M6146.67 3249.39c-28.01,0 -48.32,-6.3 -60.92,-18.9 -12.62,-12.62 -18.91,-31.51 -18.91,-56.72l0 -1146.95 -367.61 0c-28.01,0 -47.26,-5.6 -57.77,-16.81 -10.51,-11.2 -15.75,-30.11 -15.75,-56.72l0 -56.71c0,-26.61 5.25,-45.87 15.75,-57.77 10.51,-11.91 29.76,-17.85 57.77,-17.85l1004.11 0c28.01,0 47.61,5.95 58.82,17.85 11.2,11.91 16.81,31.17 16.81,57.77l0 56.71c0,26.61 -5.6,45.52 -16.81,56.72 -11.2,11.2 -30.8,16.81 -58.82,16.81l-367.62 0 0 1146.95c0,25.2 -5.93,44.12 -17.85,56.72 -11.91,12.6 -32.56,18.9 -61.97,18.9l-109.23 0z"/>
   <path id="_3" class="fil0" d="M7228.5 3280.9c-182.05,0 -322.45,-47.96 -421.18,-143.89 -98.72,-95.93 -148.1,-226.52 -148.1,-391.76 0,-165.26 49.37,-295.84 148.1,-391.76 98.73,-95.93 239.14,-143.89 421.18,-143.89 182.05,0 322.8,47.96 422.23,143.89 99.44,95.93 149.14,226.52 149.14,391.76 0,165.26 -49.72,295.84 -149.14,391.76 -99.43,95.93 -240.17,143.89 -422.23,143.89zm0 -197.46c99.43,0 175.05,-28.71 226.87,-86.14 51.82,-57.41 77.72,-141.45 77.72,-252.09 0,-109.24 -25.91,-192.21 -77.72,-248.93 -51.82,-56.71 -127.45,-85.07 -226.87,-85.07 -98.03,0 -173.31,28.36 -225.83,85.07 -52.51,56.72 -78.79,139.69 -78.79,248.93 0,109.24 26.27,192.91 78.79,251.03 52.51,58.12 127.79,87.18 225.83,87.18l0 0.02z"/>
   <path id="_4" class="fil0" d="M8480.48 3280.9c-182.05,0 -322.45,-47.96 -421.18,-143.89 -98.72,-95.93 -148.1,-226.52 -148.1,-391.76 0,-165.26 49.37,-295.84 148.1,-391.76 98.73,-95.93 239.14,-143.89 421.18,-143.89 182.05,0 322.8,47.96 422.23,143.89 99.44,95.93 149.14,226.52 149.14,391.76 0,165.26 -49.72,295.84 -149.14,391.76 -99.43,95.93 -240.17,143.89 -422.23,143.89zm0 -197.46c99.43,0 175.05,-28.71 226.87,-86.14 51.82,-57.41 77.72,-141.45 77.72,-252.09 0,-109.24 -25.91,-192.21 -77.72,-248.93 -51.82,-56.71 -127.45,-85.07 -226.87,-85.07 -98.03,0 -173.31,28.36 -225.83,85.07 -52.51,56.72 -78.79,139.69 -78.79,248.93 0,109.24 26.27,192.91 78.79,251.03 52.51,58.12 127.79,87.18 225.83,87.18l0 0.02z"/>
   <path id="_5" class="fil0" d="M9335.44 3249.39c-28,0 -47.96,-6.3 -59.86,-18.9 -11.91,-12.62 -17.85,-31.51 -17.85,-56.72l0 -1275.09c0,-26.61 5.95,-46.22 17.85,-58.82 11.91,-12.6 31.86,-18.9 59.86,-18.9l111.34 0c28.01,0 48.32,6.3 60.9,18.9 12.62,12.62 18.91,32.21 18.91,58.82l0 1275.09c0,25.2 -5.95,44.12 -17.85,56.72 -11.91,12.6 -32.56,18.9 -61.96,18.9l-111.34 0z"/>
   <path id="_6" class="fil0" d="M10211.42 3280.9c-84.03,0 -165.96,-8.75 -245.78,-26.26 -79.82,-17.51 -148.44,-43.76 -205.86,-78.77 -18.22,-9.8 -27.3,-20.32 -27.3,-31.51 0,-8.41 2.81,-16.11 8.41,-23.11l58.82 -102.92c7,-12.62 14.01,-18.9 21.01,-18.9 7,0 16.11,3.5 27.3,10.51 42.01,25.2 93.84,46.22 155.45,63.01 61.63,16.81 118.34,25.2 170.16,25.2 79.82,0 136.89,-8.04 171.2,-24.15 34.31,-16.11 51.46,-45.17 51.46,-87.18 0,-23.8 -6.65,-43.06 -19.95,-57.77 -13.31,-14.72 -33.27,-27.67 -59.87,-38.87 -26.61,-11.2 -70.71,-26.61 -132.34,-46.22 0,0 -23.11,-7.7 -69.32,-23.09 -79.83,-26.61 -143.55,-52.51 -191.16,-77.73 -47.61,-25.2 -84.37,-57.06 -110.29,-95.58 -25.91,-38.51 -38.87,-87.18 -38.87,-146 0,-95.24 40.25,-167.7 120.78,-217.41 80.52,-49.72 185.21,-74.58 314.05,-74.58 156.85,0 292,33.6 405.43,100.82 18.2,9.8 27.3,20.3 27.3,31.51 0,7 -3.5,16.11 -10.51,27.3l-56.71 90.33c-8.41,12.62 -15.4,18.9 -21.01,18.9 -5.6,0 -14.01,-3.5 -25.2,-10.51 -36.42,-22.4 -80.18,-40.25 -131.29,-53.56 -51.11,-13.3 -102.58,-19.95 -154.4,-19.95 -70.02,0 -121.49,7.36 -154.41,22.06 -32.9,14.7 -49.36,43.06 -49.36,85.07 0,36.41 19.25,65.11 57.77,86.14 38.51,21.01 105.38,46.22 200.62,75.62l69.32 21.01c109.23,35.01 185.91,76.32 230.02,123.94 44.12,47.61 66.17,107.13 66.17,178.55 0,86.83 -38.16,157.54 -114.5,212.15 -76.32,54.62 -188.71,81.93 -337.15,81.93l0.02 0.04z"/>
   <path class="fil0" d="M1767.09 1484.88c88.25,87.94 173.81,173.91 263.66,264.23 49.57,50.16 96.42,94.54 139.7,142.17 38.59,42.48 52.36,82.83 14.83,125.61 -52.27,59.61 -107.91,117.33 -168.56,168.15 -41.37,34.67 -75.59,28.32 -117.6,-8.64 -52.36,-46.08 -101.85,-95.4 -152.6,-143.33 -85.61,-86.09 -171.2,-172.18 -259.14,-259.87 -36.03,-35.93 -69.46,-70.53 -103.49,-104.58 -223.54,-223.71 -447.19,-447.29 -670.82,-670.9 -32.43,-32.43 -32.5,-32.43 -65.82,0.88 -119.96,119.92 -239.82,239.92 -359.84,359.76 -44.71,44.64 -78.24,48.05 -124.96,5.85 -48.63,-43.92 -94.68,-90.94 -139.33,-138.95 -30.22,-32.51 -30.06,-68.03 -4.02,-104.81 10.66,-15.08 23.72,-28.62 36.82,-41.74 341.1,-341.36 682.35,-682.57 1023.6,-1023.79 5.41,-5.41 10.85,-10.81 16.48,-16.01 55.89,-51.62 96.38,-52.15 150.75,0.01 37.88,36.36 74.74,73.81 111.13,111.66 38.25,39.82 54.82,85.51 -2.84,141.37 -123.36,119.54 -243.17,242.75 -365.41,363.46 -19.81,19.58 -22.33,31.67 -1.17,52.71 259.14,257.72 517.42,516.33 778.6,776.71l0.02 0.04z"/>
   <path class="fil0" d="M1832.22 1425.33c156.93,-157.15 251.11,-251.94 408.21,-408.94 10.8,-10.78 22.62,-20.73 34.89,-29.81 37.43,-27.69 70.62,-27.12 108.18,1.25 9.59,7.23 19.4,14.42 27.81,22.91 157.25,158.35 318.62,312.92 470.13,476.59 132.42,143.06 235.84,305.74 275.82,502.08 36.18,177.64 4.13,343.55 -83.03,499.46 -120.79,216.1 -290.73,387.84 -495.64,523.7 -155.29,102.96 -327.65,155.74 -516,134.02 -156.29,-18.01 -295.28,-81.41 -423.8,-171.45 -121.89,-85.41 -222.41,-193.49 -327.05,-297.39 -93.17,-92.5 -185.88,-185.46 -278.51,-278.49 -67.17,-67.46 -67.77,-107.56 -0.85,-174.83 148.96,-149.64 235.41,-238.05 388.26,-389.15 97.31,98.53 184.22,185.57 261.98,262.38 -114.62,114.68 -165.58,165.6 -279.64,279.67 51.3,51.3 98.6,98.21 145.48,145.56 76.16,76.91 151.07,155.11 243.62,213.46 158.88,100.15 322.59,121.8 493.63,32.02 159.94,-83.96 285.3,-207.98 398.54,-345.67 62.94,-76.54 115.31,-159.74 141.54,-256.29 42.73,-157.28 1.37,-300.48 -97.56,-421.12 -98.16,-119.7 -211.89,-226.58 -318.33,-339.53 -19.07,-20.25 -29.64,-5.78 -42.32,6.92 -112.11,112.25 -157.39,165.47 -272.01,275.84 -87.96,-87.75 -176.3,-175.97 -263.34,-263.2l-0.01 0.01z"/>
   <path class="fil0" d="M1767.09 1484.88c88.25,87.94 173.81,173.91 263.66,264.23 49.57,50.16 96.42,94.54 139.7,142.17 38.59,42.48 52.36,82.83 14.83,125.61 -52.27,59.61 -107.91,117.33 -168.56,168.15 -41.37,34.67 -75.59,28.32 -117.6,-8.64 -52.36,-46.08 -101.85,-95.4 -152.6,-143.33 -85.61,-86.09 -171.2,-172.18 -259.14,-259.87 -36.03,-35.93 -69.46,-70.53 -103.49,-104.58 -223.54,-223.71 -447.19,-447.29 -670.82,-670.9 -32.43,-32.43 -32.5,-32.43 -65.82,0.88 -119.96,119.92 -239.82,239.92 -359.84,359.76 -44.71,44.64 -78.24,48.05 -124.96,5.85 -48.63,-43.92 -94.68,-90.94 -139.33,-138.95 -30.22,-32.51 -30.06,-68.03 -4.02,-104.81 10.66,-15.08 23.72,-28.62 36.82,-41.74 341.1,-341.36 682.35,-682.57 1023.6,-1023.79 5.41,-5.41 10.85,-10.81 16.48,-16.01 55.89,-51.62 96.38,-52.15 150.75,0.01 37.88,36.36 74.74,73.81 111.13,111.66 38.25,39.82 54.82,85.51 -2.84,141.37 -123.36,119.54 -243.17,242.75 -365.41,363.46 -19.81,19.58 -22.33,31.67 -1.17,52.71 259.14,257.72 517.42,516.33 778.6,776.71l0.02 0.04z"/>
   <path class="fil0" d="M1832.22 1425.33c156.93,-157.15 251.11,-251.94 408.21,-408.94 10.8,-10.78 22.62,-20.73 34.89,-29.81 37.43,-27.69 70.62,-27.12 108.18,1.25 9.59,7.23 19.4,14.42 27.81,22.91 157.25,158.35 318.62,312.92 470.13,476.59 132.42,143.06 235.84,305.74 275.82,502.08 36.18,177.64 4.13,343.55 -83.03,499.46 -120.79,216.1 -290.73,387.84 -495.64,523.7 -155.29,102.96 -327.65,155.74 -516,134.02 -156.29,-18.01 -295.28,-81.41 -423.8,-171.45 -121.89,-85.41 -222.41,-193.49 -327.05,-297.39 -93.17,-92.5 -185.88,-185.46 -278.51,-278.49 -67.17,-67.46 -67.77,-107.56 -0.85,-174.83 148.96,-149.64 235.41,-238.05 388.26,-389.15 97.31,98.53 184.22,185.57 261.98,262.38 -114.62,114.68 -165.58,165.6 -279.64,279.67 51.3,51.3 98.6,98.21 145.48,145.56 76.16,76.91 151.07,155.11 243.62,213.46 158.88,100.15 322.59,121.8 493.63,32.02 159.94,-83.96 285.3,-207.98 398.54,-345.67 62.94,-76.54 115.31,-159.74 141.54,-256.29 42.73,-157.28 1.37,-300.48 -97.56,-421.12 -98.16,-119.7 -211.89,-226.58 -318.33,-339.53 -19.07,-20.25 -29.64,-5.78 -42.32,6.92 -112.11,112.25 -157.39,165.47 -272.01,275.84 -87.96,-87.75 -176.3,-175.97 -263.34,-263.2l-0.01 0.01z"/>
   <path class="fil0" d="M5811.46 4892.15c-24.72,0 -42.32,-5.56 -52.83,-16.67 -10.51,-11.12 -15.75,-27.81 -15.75,-50.04l0 -1125.06c0,-23.48 5.25,-40.78 15.75,-51.9 10.51,-11.12 28.11,-16.67 52.83,-16.67l370.68 0c208.82,0 368.53,50.04 479.13,150.13 110.59,100.09 165.89,260.1 165.89,480.06 0,420.12 -215.02,630.18 -645.02,630.18l-370.68 0 0 -0.02zm385.53 -179.79c130.98,0 229.52,-33.97 295.63,-101.94 66.1,-67.95 99.16,-184.11 99.16,-348.45 0,-164.35 -33.06,-280.2 -99.16,-347.53 -66.11,-67.34 -164.66,-101.02 -295.63,-101.02l-216.85 0 0 898.94 216.85 0z"/>
   <path id="_1_0" class="fil0" d="M6919.84 4892.15c-21.01,0 -31.51,-9.27 -31.51,-27.81 0,-7.41 1.85,-15.45 5.56,-24.09l489.32 -1160.29c7.42,-18.52 15.45,-31.2 24.09,-37.99 8.66,-6.79 21.01,-10.2 37.07,-10.2l101.94 0c17.3,0 29.96,3.4 38,10.2 8.03,6.79 15.75,19.47 23.16,37.99l489.32 1160.29c3.71,8.64 5.57,16.67 5.57,24.09 0,18.52 -10.51,27.81 -31.51,27.81l-161.25 0c-16.06,0 -27.48,-2.17 -34.29,-6.48 -6.79,-4.33 -13.28,-13.28 -19.47,-26.89l-105.65 -259.49 -511.55 0 -103.8 259.49c-6.18,13.59 -12.67,22.55 -19.47,26.89 -6.79,4.33 -18.23,6.48 -34.31,6.48l-161.25 0 0.02 0zm771.05 -465.23l-196.46 -485.61 -196.46 485.61 392.94 0 -0.02 0z"/>
   <path id="_2_1" class="fil0" d="M8508.28 4892.15c-17.3,0 -29.96,-3.09 -38,-9.27 -8.03,-6.18 -15.75,-18.52 -23.16,-37.07l-481.91 -1162.14c-3.7,-7.41 -5.56,-14.83 -5.56,-22.25 0,-8.66 2.78,-15.75 8.34,-21.32 5.57,-5.57 13.28,-8.34 23.16,-8.34l159.4 0c16.08,0 28.42,3.09 37.07,9.27 8.66,6.18 15.44,16.06 20.39,29.66l350.31 889.67 350.31 -889.67c4.95,-13.6 11.74,-23.48 20.39,-29.66 8.64,-6.18 21.01,-9.27 37.07,-9.27l159.4 0c9.89,0 17.62,2.78 23.16,8.34 5.56,5.56 8.34,12.66 8.34,21.32 0,7.41 -1.86,14.83 -5.57,22.25l-480.05 1162.14c-7.42,18.52 -15.45,30.89 -24.09,37.07 -8.66,6.18 -21.63,9.27 -38.93,9.27l-100.07 0 -0.01 0z"/>
   <path id="_3_2" class="fil0" d="M9407.21 4892.15c-24.72,0 -42.32,-5.56 -52.83,-16.67 -10.51,-11.12 -15.75,-27.81 -15.75,-50.04l0 -1125.06c0,-23.48 5.25,-40.78 15.75,-51.9 10.51,-11.12 28.11,-16.67 52.83,-16.67l98.23 0c24.71,0 42.63,5.56 53.76,16.67 11.11,11.12 16.67,28.42 16.67,51.9l0 1125.06c0,22.25 -5.25,38.92 -15.75,50.04 -10.51,11.12 -28.74,16.67 -54.68,16.67l-98.23 0 0.01 0z"/>
   <path id="_4_3" class="fil0" d="M10244.99 4919.95c-87.73,0 -173.93,-9.59 -258.56,-28.74 -84.64,-19.15 -152.31,-46.04 -202.95,-80.62 -16.06,-11.12 -24.09,-21.01 -24.09,-29.66 0,-8.66 2.47,-16.08 7.41,-22.25l61.16 -96.38c7.42,-11.12 14.21,-16.67 20.39,-16.67 6.18,0 14.21,3.09 24.09,9.26 45.73,27.19 98.85,49.12 159.4,65.8 60.54,16.67 121.71,25.02 183.49,25.02 84.03,0 147.35,-13.9 189.97,-41.7 42.63,-27.81 63.95,-72.59 63.95,-134.38 0,-37.07 -8.04,-66.73 -24.09,-88.97 -16.06,-22.25 -39.55,-41.39 -70.43,-57.46 -30.89,-16.06 -80.93,-37.7 -150.13,-64.88l-42.63 -16.67c-80.31,-32.13 -146.73,-63.01 -199.24,-92.67 -52.53,-29.66 -96.07,-68.57 -130.67,-116.78 -34.6,-48.19 -51.89,-106.88 -51.89,-176.08 0,-112.44 42.94,-199.24 128.81,-260.41 85.88,-61.16 198.63,-91.75 338.26,-91.75 85.26,0 159.09,8.03 221.49,24.09 62.4,16.06 116.46,40.77 162.19,74.14 14.83,11.11 22.25,21.62 22.25,31.51 0,7.41 -2.47,14.21 -7.41,20.39l-59.31 96.38c-7.42,11.12 -13.6,16.69 -18.54,16.69 -4.95,0 -12.98,-3.71 -24.09,-11.12 -79.09,-50.66 -177.32,-75.99 -294.7,-75.99 -77.85,0 -136.53,14.21 -176.08,42.63 -39.55,28.41 -59.31,73.52 -59.31,135.31 0,38.29 8.34,68.88 25.02,91.75 16.67,22.86 41.09,42.32 73.21,58.39 32.13,16.08 84.03,37.7 155.7,64.88l46.34 18.52c90.19,35.82 160.64,68.89 211.3,99.16 50.66,30.28 89.89,67.96 117.69,113.06 27.81,45.1 41.71,102.87 41.71,173.3 0,106.27 -39.85,189.99 -119.55,251.14 -79.7,61.16 -193.07,91.75 -340.11,91.75l-0.02 0.03z"/>
  </g>
 </g>
</svg>
